<svg width="470" height="414" viewBox="0 0 470 414" fill="none" xmlns="http://www.w3.org/2000/svg">
<rect x="55" y="151" width="252" height="47" rx="6" fill="black"/>
<circle cx="23.5" cy="174.5" r="23.5" fill="black"/>
<rect x="101" y="263" width="252" height="47" rx="6" fill="black"/>
<circle cx="69.5" cy="286.5" r="23.5" fill="black"/>
<rect x="78" y="207" width="252" height="47" rx="6" fill="black"/>
<circle cx="46.5" cy="230.5" r="23.5" fill="black"/>
<g filter="url(#filter0_d_1_18)">
<path d="M251.561 96C252.7 121.756 273.285 141.609 297.913 149.79C307.148 143.557 319.644 143.213 329.431 148.381C339.246 143.276 352.086 143.332 361.096 150.134C385.577 142.608 407.344 122.85 408.701 96.007C423.256 112.799 423.931 138.594 401.616 158.717C422.241 155.302 443.23 164.283 459.744 176.991C461.004 177.727 459.471 178.547 458.834 179.01C441.43 190.206 416.059 203.83 395.344 202.424C400.426 190.812 397.122 177.313 390.324 167.139C389.61 167.461 388.896 167.791 388.189 168.127C389.009 171.481 398.605 187.196 388.875 206.463C386.523 211.547 382.637 215.656 379.676 220.368C356.913 255.398 359.7 249.717 359.598 255.576C359.71 262.974 359.486 270.386 359.71 277.784C361.467 278.808 363.28 279.783 364.834 281.122C365.541 282.77 365.128 284.67 365.226 286.423C364.951 292.109 367.364 302.762 356.804 309.009C354.006 310.694 355.657 310.235 309.087 310.285C301.645 310.342 295.925 303.231 295.127 296.268C294.847 291.374 295.064 286.465 295.022 281.564C296.849 280.315 298.656 279.039 300.49 277.805C300.49 269.453 300.497 261.095 300.497 252.743C300.608 250.503 301.005 251.778 280.587 220.368C277.723 215.803 273.964 211.82 271.619 206.926C266.739 197.523 265.724 186.184 269.014 176.093C269.805 173.324 271.43 170.869 272.067 168.05C271.423 167.833 270.779 167.623 270.135 167.412C261.085 182.5 261.804 192.464 265.22 202.901C244.547 204.356 217.116 189.69 200 177.923C217.678 164.219 236.666 156.047 258.66 158.738C235.811 137.991 237.446 112.29 251.561 96Z" fill="#E05D38"/>
</g>
<path d="M458.31 0.00390625C464.794 0.16811 470 5.47609 470 12V402C470 408.524 464.794 413.832 458.31 413.996L458 414H43C36.4761 414 31.1681 408.794 31.0039 402.31L31 402V321H38V402C38 404.761 40.2386 407 43 407H458C460.761 407 463 404.761 463 402V12C463 9.32473 460.899 7.14053 458.257 7.00684L458 7H43C40.3247 7 38.1405 9.10111 38.0068 11.7432L38 12V139H31V12C31 5.37258 36.3726 4.93259e-08 43 0H458L458.31 0.00390625Z" fill="black"/>
<defs>
<filter id="filter0_d_1_18" x="196" y="96" width="268.227" height="222.306" filterUnits="userSpaceOnUse" color-interpolation-filters="sRGB">
<feFlood flood-opacity="0" result="BackgroundImageFix"/>
<feColorMatrix in="SourceAlpha" type="matrix" values="0 0 0 0 0 0 0 0 0 0 0 0 0 0 0 0 0 0 127 0" result="hardAlpha"/>
<feOffset dy="4"/>
<feGaussianBlur stdDeviation="2"/>
<feComposite in2="hardAlpha" operator="out"/>
<feColorMatrix type="matrix" values="0 0 0 0 0 0 0 0 0 0 0 0 0 0 0 0 0 0 0.25 0"/>
<feBlend mode="normal" in2="BackgroundImageFix" result="effect1_dropShadow_1_18"/>
<feBlend mode="normal" in="SourceGraphic" in2="effect1_dropShadow_1_18" result="shape"/>
</filter>
</defs>
</svg>
